<svg width="480" height="480" xmlns="http://www.w3.org/2000/svg" preserveAspectRatio="xMidYMid meet">

 <g>
  <title>background</title>
  <rect fill="none" id="canvas_background" height="402" width="582" y="-1" x="-1"/>
 </g>
 <g>
  <title>Layer 1</title>
  <g id="svg_1" fill="#000000" transform="translate(0,480) scale(0.10000000149011612,-0.10000000149011612) ">
   <path fill="#ffffff" stroke="null" id="svg_2" d="m818.166825,4751.89565c0,-6.169271 -30.865885,-14.80625 -67.904948,-19.741667c-37.039062,-3.701563 -67.904948,-12.338542 -67.904948,-17.273959c0,-6.169271 -22.223437,-13.572396 -49.385416,-18.507813c-27.161979,-3.701563 -49.385416,-12.338542 -49.385416,-17.273959c0,-4.935417 -22.223437,-18.507813 -49.385416,-30.846355c-27.161979,-11.104688 -49.385416,-25.910938 -49.385416,-32.080209c0,-6.169271 -13.58099,-14.80625 -30.865885,-18.507813c-17.284896,-4.935417 -30.865885,-13.572396 -30.865885,-19.741667c0,-7.403125 -7.407812,-12.338542 -16.05026,-12.338542c-19.754167,0 -181.491405,-161.634898 -181.491405,-182.610419c0,-7.403125 -4.938542,-14.80625 -12.346354,-14.80625c-6.173177,0 -14.815625,-13.572396 -19.754167,-30.846355c-3.703906,-17.273959 -12.346354,-30.846355 -18.519531,-30.846355c-6.173177,0 -20.988802,-22.209375 -32.100521,-49.354167c-12.346354,-27.144792 -25.927344,-49.354167 -30.865885,-49.354167c-4.938542,0 -13.58099,-22.209375 -17.284896,-49.354167c-4.938542,-27.144792 -12.346354,-49.354167 -18.519531,-49.354167c-4.938542,0 -13.58099,-30.846355 -17.284896,-67.86198c-4.938542,-37.015625 -13.58099,-67.86198 -19.754167,-67.86198c-6.173177,0 -11.111719,-671.216675 -11.111719,-1579.333354c0,-908.116678 4.938542,-1579.333354 11.111719,-1579.333354c6.173177,0 14.815625,-30.846355 19.754167,-67.86198c3.703906,-37.015625 12.346354,-67.86198 17.284896,-67.86198c6.173177,0 13.58099,-22.209375 18.519531,-49.354167c3.703906,-27.144792 12.346354,-49.354167 17.284896,-49.354167c4.938542,0 18.519531,-22.209375 30.865885,-49.354167c11.111719,-27.144792 25.927344,-49.354167 32.100521,-49.354167c6.173177,0 14.815625,-13.572396 18.519531,-30.846355c4.938542,-17.273959 13.58099,-30.846355 19.754167,-30.846355c7.407812,0 12.346354,-7.403125 12.346354,-16.040104c0,-19.741667 161.737239,-181.376565 182.726041,-181.376565c7.407812,0 14.815625,-4.935417 14.815625,-12.338542c0,-6.169271 13.58099,-14.80625 30.865885,-19.741667c17.284896,-3.701563 30.865885,-12.338542 30.865885,-18.507813c0,-6.169271 22.223437,-20.975521 49.385416,-32.080209c27.161979,-12.338542 49.385416,-25.910938 49.385416,-30.846355c0,-4.935417 22.223437,-13.572396 49.385416,-17.273959c27.161979,-4.935417 49.385416,-12.338542 49.385416,-18.507813c0,-4.935417 30.865885,-13.572396 67.904948,-17.273959c37.039062,-4.935417 67.904948,-13.572396 67.904948,-19.741667c0,-6.169271 671.641663,-11.104688 1580.333324,-11.104688c908.691661,0 1580.333324,4.935417 1580.333324,11.104688c0,6.169271 30.865885,14.80625 67.904948,19.741667c37.039062,3.701563 67.904948,12.338542 67.904948,17.273959c0,6.169271 22.223437,13.572396 49.385416,18.507813c27.161979,3.701563 49.385416,12.338542 49.385416,17.273959c0,4.935417 22.223437,18.507813 49.385416,30.846355c27.161979,11.104688 49.385416,25.910938 49.385416,32.080209c0,6.169271 13.58099,14.80625 30.865885,18.507813c17.284896,4.935417 30.865885,13.572396 30.865885,19.741667c0,7.403125 7.407812,12.338542 16.05026,12.338542c19.754167,0 181.491405,161.634898 181.491405,182.610419c0,7.403125 4.938542,14.80625 12.346354,14.80625c6.173177,0 14.815625,13.572396 19.754167,30.846355c3.703906,17.273959 12.346354,30.846355 18.519531,30.846355c4.938542,0 19.754167,20.975521 32.100521,46.886459c11.111719,24.677084 24.692708,48.120313 29.63125,51.821876c3.703906,3.701563 12.346354,19.741667 17.284896,37.015625c4.938542,17.273959 14.815625,34.547917 22.223437,39.483334c7.407812,3.701563 16.05026,41.951042 18.519531,82.66823c2.469271,41.951042 9.877083,75.265105 16.05026,75.265105c6.173177,0 11.111719,678.6198 11.111719,1579.333354c0,900.713553 -4.938542,1579.333354 -11.111719,1579.333354c-6.173177,0 -13.58099,33.314063 -16.05026,75.265105c-2.469271,40.717188 -11.111719,78.966668 -18.519531,82.66823c-7.407812,4.935417 -17.284896,22.209375 -22.223437,39.483334c-4.938542,17.273959 -13.58099,33.314063 -17.284896,37.015625c-4.938542,3.701563 -18.519531,27.144792 -29.63125,53.05573c-12.346354,24.677084 -27.161979,45.652605 -32.100521,45.652605c-6.173177,0 -14.815625,13.572396 -18.519531,30.846355c-4.938542,17.273959 -13.58099,30.846355 -19.754167,30.846355c-7.407812,0 -12.346354,7.403125 -12.346354,16.040104c0,19.741667 -161.737239,181.376565 -182.726041,181.376565c-7.407812,0 -14.815625,4.935417 -14.815625,12.338542c0,6.169271 -13.58099,14.80625 -30.865885,19.741667c-17.284896,3.701563 -30.865885,12.338542 -30.865885,18.507813c0,6.169271 -22.223437,20.975521 -49.385416,32.080209c-27.161979,12.338542 -49.385416,25.910938 -49.385416,30.846355c0,4.935417 -22.223437,13.572396 -49.385416,17.273959c-27.161979,4.935417 -49.385416,12.338542 -49.385416,18.507813c0,4.935417 -30.865885,13.572396 -67.904948,17.273959c-37.039062,4.935417 -67.904948,13.572396 -67.904948,19.741667c0,6.169271 -671.641663,11.104688 -1580.333324,11.104688c-908.691661,0 -1580.333324,-4.935417 -1580.333324,-11.104688zm1113.641139,-848.891678c35.804427,-18.507813 67.904948,-37.015625 71.608854,-40.717188c3.703906,-3.701563 25.927344,-16.040104 49.385416,-29.6125c23.458073,-12.338542 74.078125,-39.483334 111.117187,-60.458855c37.039062,-20.975521 96.301562,-51.821876 129.636718,-69.095834c34.569791,-17.273959 64.201041,-34.547917 67.904948,-39.483334c3.703906,-3.701563 23.458073,-14.80625 43.212239,-24.677084c69.139583,-34.547917 185.195311,-101.176043 191.368488,-109.813022c3.703906,-4.935417 19.754167,-13.572396 37.039062,-18.507813c17.284896,-4.935417 33.335156,-13.572396 37.039062,-17.273959c3.703906,-4.935417 34.569791,-22.209375 67.904948,-39.483334c83.955208,-43.184896 200.010936,-107.345314 255.56953,-143.127085c25.927344,-14.80625 50.620052,-28.378646 55.558593,-28.378646c17.284896,0 77.782031,-61.692709 77.782031,-80.200522c0,-27.144792 -54.323958,-70.329688 -145.686978,-117.216147c-45.68151,-23.443229 -85.189843,-45.652605 -88.893749,-49.354167c-9.877083,-9.870833 -51.854687,-34.547917 -111.117187,-64.160417c-30.865885,-16.040104 -56.793229,-32.080209 -59.2625,-37.015625c-2.469271,-6.169271 -12.346354,-9.870833 -20.988802,-9.870833c-9.877083,0 -24.692708,-7.403125 -33.335156,-16.040104c-8.642448,-8.636979 -51.854687,-34.547917 -96.301562,-56.757292c-137.04453,-69.095834 -203.714843,-106.11146 -207.418749,-114.748439c-2.469271,-6.169271 -12.346354,-9.870833 -20.988802,-9.870833c-9.877083,0 -24.692708,-7.403125 -33.335156,-16.040104c-14.815625,-13.572396 -41.977604,-28.378646 -232.111457,-127.086981c-37.039062,-19.741667 -70.374218,-39.483334 -74.078125,-43.184896c-3.703906,-3.701563 -14.815625,-11.104688 -24.692708,-14.80625c-9.877083,-4.935417 -40.742969,-22.209375 -67.904948,-39.483334c-58.027864,-35.781771 -88.893749,-38.24948 -119.759635,-9.870833c-20.988802,18.507813 -22.223437,57.991147 -22.223437,725.506259c0,531.791153 3.703906,708.232301 14.815625,719.336988c23.458073,23.443229 76.547395,17.273959 148.156249,-18.507813zm1308.713534,-2159.244819c-1.234635,-39.483334 1.234635,-77.732814 6.173177,-85.135939c6.173177,-7.403125 51.854687,-17.273959 102.474739,-20.975521c50.620052,-3.701563 93.832291,-13.572396 96.301562,-20.975521c2.469271,-6.169271 9.877083,-12.338542 17.284896,-12.338542c17.284896,0 74.078125,-60.458855 100.005468,-107.345314c16.05026,-29.6125 20.988802,-67.86198 20.988802,-162.868752c0,-150.53021 -22.223437,-204.819794 -102.474739,-257.875524c-50.620052,-32.080209 -55.558593,-33.314063 -237.049999,-33.314063l-185.195311,0l-3.703906,377.55938l-2.469271,376.325526l27.161979,14.80625c33.335156,17.273959 134.57526,24.677084 150.62552,12.338542c6.173177,-4.935417 11.111719,-40.717188 9.877083,-80.200522zm-977.831244,-9.870833l0,-92.539064l53.089323,0c76.547395,0 85.189843,-9.870833 80.251302,-93.772918l-3.703906,-72.797397l-64.201041,-3.701563l-65.435677,-3.701563l-2.469271,-218.39219l-3.703906,-218.39219l-60.497135,-3.701563c-123.463541,-7.403125 -117.290364,-19.741667 -120.99427,222.093753l-3.703906,212.222919l-30.865885,7.403125c-28.396614,6.169271 -30.865885,13.572396 -34.569791,82.66823c-3.703906,74.031251 -2.469271,75.265105 34.569791,87.603647c35.804427,13.572396 37.039062,16.040104 37.039062,86.369793c0,66.628126 2.469271,72.797397 34.569791,85.135939c18.519531,7.403125 59.2625,13.572396 92.597656,14.80625l58.027864,1.233854l0,-92.539064zm-1070.4289,44.418751c100.005468,-43.184896 144.452343,-113.514585 144.452343,-229.496878c0,-78.966668 -8.642448,-106.11146 -58.027864,-175.207294c-30.865885,-40.717188 -35.804427,-65.394272 -16.05026,-65.394272c7.407812,0 12.346354,-7.403125 12.346354,-17.273959c0,-9.870833 7.407812,-25.910938 16.05026,-34.547917c7.407812,-8.636979 25.927344,-38.24948 39.508333,-65.394272c13.58099,-27.144792 27.161979,-51.821876 30.865885,-55.523438c3.703906,-3.701563 16.05026,-27.144792 27.161979,-51.821876l22.223437,-46.886459l-111.117187,0l-111.117187,0l-16.05026,40.717188c-9.877083,20.975521 -35.804427,76.498959 -58.027864,123.385418l-40.742969,82.66823l-97.536197,0l-96.301562,0l0,-123.385418l0,-124.619272l-92.597656,3.701563l-93.832291,3.701563l0,367.688546c0,201.118232 1.234635,372.623963 1.234635,378.793234c0,7.403125 82.720572,12.338542 220.999738,12.338542c190.133853,0 229.642186,-3.701563 276.558332,-23.443229zm403.725779,-349.180734c3.703906,-112.280731 8.642448,-207.287503 12.346354,-209.755211c40.742969,-29.6125 76.547395,-38.24948 103.709374,-22.209375c40.742969,20.975521 44.446875,40.717188 44.446875,236.900003c0,92.539064 3.703906,176.441148 7.407812,187.545836c6.173177,14.80625 24.692708,19.741667 77.782031,19.741667c38.273698,0 76.547395,-4.935417 85.189843,-11.104688c13.58099,-7.403125 16.05026,-57.991147 12.346354,-236.900003c-4.938542,-256.64167 -14.815625,-291.189587 -100.005468,-335.608338c-100.005468,-51.821876 -290.139321,-38.24948 -353.105727,25.910938c-69.139583,69.095834 -75.31276,93.772918 -75.31276,328.205213c0,160.401044 3.703906,217.158336 16.05026,222.093753c7.407812,2.467708 48.150781,4.935417 88.893749,3.701563l74.078125,-2.467708l6.173177,-206.053648zm1034.624473,6.169271c2.469271,-198.650523 3.703906,-199.884378 35.804427,-224.561461c39.508333,-32.080209 54.323958,-32.080209 93.832291,0c32.100521,24.677084 33.335156,25.910938 35.804427,224.561461l3.703906,199.884378l79.016666,3.701563c55.558593,2.467708 82.720572,-1.233854 88.893749,-12.338542c14.815625,-22.209375 13.58099,-387.430213 -1.234635,-451.590631c-22.223437,-92.539064 -83.955208,-135.72396 -207.418749,-146.828648c-180.25677,-14.80625 -298.781769,54.289584 -298.781769,175.207294c0,23.443229 -4.938542,43.184896 -12.346354,43.184896c-19.754167,0 -16.05026,378.793234 3.703906,387.430213c7.407812,2.467708 50.620052,4.935417 95.066927,3.701563l80.251302,-2.467708l3.703906,-199.884378zm1407.484366,182.610419c2.469271,-7.403125 9.877083,-13.572396 17.284896,-13.572396c19.754167,0 76.547395,-65.394272 100.005468,-114.748439c28.396614,-61.692709 29.63125,-187.545836 1.234635,-198.650523c-11.111719,-3.701563 -91.36302,-7.403125 -179.022134,-7.403125l-159.267968,0l0,-35.781771c0,-28.378646 8.642448,-39.483334 44.446875,-56.757292c44.446875,-20.975521 77.782031,-18.507813 144.452343,9.870833c18.519531,8.636979 33.335156,18.507813 33.335156,23.443229c0,6.169271 8.642448,9.870833 18.519531,9.870833c9.877083,0 18.519531,-4.935417 18.519531,-11.104688c0,-6.169271 9.877083,-14.80625 22.223437,-18.507813c41.977604,-16.040104 76.547395,-38.24948 76.547395,-49.354167c0,-16.040104 -75.31276,-78.966668 -120.99427,-99.942189c-20.988802,-11.104688 -66.670312,-22.209375 -98.770833,-27.144792c-64.201041,-7.403125 -200.010936,16.040104 -200.010936,34.547917c0,6.169271 -7.407812,11.104688 -16.05026,11.104688c-17.284896,0 -58.027864,43.184896 -58.027864,60.458855c0,6.169271 -6.173177,13.572396 -14.815625,16.040104c-7.407812,2.467708 -16.05026,38.24948 -19.754167,81.434376c-2.469271,41.951042 -9.877083,76.498959 -16.05026,76.498959c-6.173177,0 -11.111719,13.572396 -11.111719,30.846355c0,17.273959 6.173177,30.846355 12.346354,30.846355c7.407812,0 12.346354,27.144792 12.346354,59.225001c0,75.265105 45.68151,144.360939 124.698176,185.078127c48.150781,24.677084 66.670312,28.378646 159.267968,23.443229c59.2625,-3.701563 106.178645,-12.338542 108.647916,-19.741667z"/>
   <path fill="#ffffff" stroke="null" id="svg_3" d="m3250.398581,1339.054981l0,-129.554689l50.620052,0c27.161979,0 58.027864,8.636979 67.904948,18.507813c24.692708,23.443229 34.569791,90.071355 24.692708,156.699481c-8.642448,57.991147 -41.977604,83.902084 -108.647916,83.902084l-34.569791,0l0,-129.554689z"/>
   <path fill="#ffffff" stroke="null" id="svg_4" d="m897.183491,1611.736756c-3.703906,-8.636979 -4.938542,-46.886459 -2.469271,-82.66823l3.703906,-66.628126l61.73177,1.233854c34.569791,1.233854 80.251302,2.467708 101.240104,3.701563c30.865885,1.233854 44.446875,9.870833 59.2625,38.24948c24.692708,46.886459 23.458073,49.354167 -11.111719,90.071355c-25.927344,30.846355 -35.804427,33.314063 -117.290364,33.314063c-62.966406,0 -90.128385,-4.935417 -95.066927,-17.273959z"/>
   <path fill="#ffffff" stroke="null" id="svg_5" d="m3845.492848,1480.948212c-41.977604,-34.547917 -23.458073,-49.354167 60.497135,-49.354167c58.027864,0 72.843489,3.701563 72.843489,19.741667c0,53.05573 -82.720572,71.563543 -133.340624,29.6125z"/>
  </g>
 </g>
</svg>