<svg width="225" height="225" xmlns="http://www.w3.org/2000/svg" preserveAspectRatio="xMidYMid meet">

 <g>
  <title>background</title>
  <rect fill="none" id="canvas_background" height="402" width="582" y="-1" x="-1"/>
 </g>
 <g>
  <title>Layer 1</title>
  <g id="svg_1" fill="#000000" transform="translate(0,225) scale(0.10000000149011612,-0.10000000149011612) ">
   <path fill="#ffffff" id="svg_2" d="m665,2239c-330,-20 -495,-95 -573,-260c-60,-128 -79,-256 -89,-602l-6,-240l154,7c452,20 618,64 753,199c130,131 174,276 196,647c5,91 10,186 10,213l0,47l-157,-1c-87,-1 -217,-5 -288,-10z"/>
   <path fill="#ffffff" id="svg_3" d="m1144,2093c17,-392 48,-541 140,-676c80,-117 210,-197 376,-231c94,-19 241,-33 439,-42l154,-7l-7,236c-10,344 -29,480 -88,606c-58,123 -165,195 -341,232c-100,20 -359,39 -556,39l-124,0l7,-157z"/>
   <path fill="#ffffff" id="svg_4" d="m0,989c0,-184 17,-443 36,-539c47,-249 154,-360 396,-411c97,-20 360,-38 562,-39l118,0l-6,148c-21,460 -63,619 -202,759c-134,134 -307,180 -746,199l-158,7l0,-124z"/>
   <path fill="#ffffff" id="svg_5" d="m2025,1103c-150,-7 -318,-27 -403,-49c-119,-30 -203,-75 -277,-149c-137,-137 -182,-303 -201,-747l-7,-158l124,0c68,0 198,5 289,10c427,25 570,105 643,360c34,117 46,226 54,503l6,237l-84,-2c-46,-1 -111,-3 -144,-5z"/>
  </g>
 </g>
</svg>